<svg xmlns="http://www.w3.org/2000/svg" xml:space="preserve" width="100%" height="100%" id="Calque_1" version="1.1" viewBox="81.76 74.73 256.01 256.01">
    <style>
        .st1{stroke-width:.5}.st1,.st2{stroke-linejoin:round;stroke-miterlimit:10}
    </style>
    <path d="m93.73 218.83-2.37 7.52-1.79 5.11-1.12 4.22-.3 4.3.45 4.74 1.1 5.14 1.71 5.49 2.56 5.96 3.71 6.71 5.1 7.58 6.12 7.98 6.69 7.78 6.83 7.08 6.86 6.33 6.86 5.61 6.79 4.9 6.52 4.08 6.04 3.14 5.38 2.1 4.58 1.09 3.66.19 2.88-.61 2.65-1.17 2.86-1.53 3.56-1.57 5.04-1.29 7.57-.84v4.84l-4.26.37-1.79.25-1.56.28-1.35.3-1.17.33-1.03.35-.48.18-.45.19-.43.19-.43.2-.83.41-.83.44-.84.46-1.75.93-.93.45-.99.43-2.07.71-1.14.26-1.19.19-.63.06-.64.04-1.31.01-1.36-.08-1.41-.17-2.97-.59-3.16-.93-3.35-1.27-1.74-.77-1.78-.84-3.89-2.05-4.04-2.39-4.14-2.71-4.21-2.98-4.24-3.26-4.26-3.5-4.25-3.77-4.25-4.04-3.3-3.34-3.27-3.51-3.25-3.68-3.18-3.79-3.06-3.84-2.9-3.84-2.69-3.78-1.25-1.86-1.18-1.81-1.11-1.78-1.03-1.73-.95-1.68-.88-1.64-1.55-3.17-1.3-3.01-1.09-2.9-.9-2.79-.39-1.36-.35-1.34-.62-2.64-.53-3-.33-2.94-.09-2.88.17-2.81.14-1.05.18-1.03.48-2.01.6-1.99.69-2.02 1.58-4.47 1.63-4.87h2.41zm132.13 99.94 7.52 2.37 5.11 1.79 4.22 1.12 4.3.3 4.74-.45 5.14-1.1 5.49-1.71 5.97-2.56 6.71-3.71 7.58-5.09 7.98-6.13 7.78-6.69 7.08-6.83 6.32-6.86 5.61-6.86 4.9-6.79 4.08-6.52 3.14-6.04 2.1-5.38 1.1-4.58.18-3.66-.6-2.88-1.18-2.65-1.53-2.86-1.56-3.56-1.3-5.04-.83-7.57h4.84l.37 4.26.24 1.79.28 1.56.31 1.35.33 1.17.35 1.03.18.48.18.45.2.43.19.43.42.83.44.83.45.84.93 1.75.46.93.43.99.7 2.07.27 1.14.18 1.19.07.63.03.64.01 1.31-.08 1.36-.17 1.41-.59 2.97-.93 3.16-1.27 3.35-.76 1.74-.85 1.79-2.05 3.88-2.39 4.04-2.7 4.14-2.99 4.21-3.25 4.24-3.51 4.26-3.77 4.25-4.04 4.25-3.34 3.3-3.51 3.28-3.67 3.24-3.79 3.18-3.84 3.06-3.85 2.9-3.78 2.69-1.85 1.25-1.82 1.18-1.78 1.11-1.73 1.03-1.68.95-1.64.88-3.16 1.55-3.02 1.3-2.89 1.09-2.79.9-1.36.39-1.34.35-2.65.62-3 .53-2.94.33-2.87.09-2.82-.17-1.04-.14-1.04-.18-2.01-.48-1.98-.6-2.02-.69-4.47-1.57-4.88-1.64v-2.41zm41.88-239.39 3.89 2.05 4.03 2.39 4.14 2.7 4.21 2.99 4.25 3.25 4.25 3.51 4.26 3.77 4.24 4.04 3.3 3.34 3.28 3.51 3.25 3.67 3.18 3.79 3.06 3.84 2.9 3.85 2.69 3.78 1.25 1.85 1.18 1.82 1.11 1.78 1.02 1.73.95 1.68.88 1.64 1.55 3.16 1.3 3.02 1.09 2.89.9 2.79.39 1.36.36 1.34.61 2.65.54 3 .32 2.94.1 2.87-.17 2.82-.14 1.04-.19 1.04-.47 2.01-.6 1.98-.69 2.03-1.58 4.46-1.63 4.88h-4.95l2.37-7.52 1.8-5.11 1.12-4.22.29-4.3-.44-4.74-1.1-5.14-1.72-5.49-2.55-5.97-3.72-6.71-5.09-7.58-6.13-7.98-6.68-7.78-6.83-7.08-6.87-6.32-6.86-5.61-6.78-4.9-6.52-4.08-6.05-3.14-5.38-2.1-4.58-1.1-3.66-.18-2.88.6-2.64 1.18-2.86 1.53-3.56 1.56-5.05 1.3-7.57.83v-4.84l4.27-.37 1.79-.24 1.55-.28 1.35-.31 1.17-.33 1.04-.35.47-.18.45-.18.44-.2.42-.19.83-.42.83-.44.84-.45 1.76-.93.93-.46.98-.43 2.08-.7 1.13-.27 1.2-.18.62-.06.64-.04 1.32-.01 1.36.08 1.41.17 2.97.59 3.15.93 3.35 1.27 1.74.76zM92.79 179.07l.84 7.57h-4.84l-.37-4.27-.25-1.79-.28-1.55-.3-1.35-.33-1.17-.35-1.04-.18-.47-.19-.45-.19-.44-.2-.42-.41-.83-.44-.83-.46-.84-.93-1.76-.45-.93-.43-.98-.71-2.08-.26-1.13-.19-1.2-.06-.62-.04-.64-.01-1.31.08-1.37.17-1.41.59-2.96.93-3.16 1.27-3.35.77-1.74.84-1.79 2.05-3.89 2.39-4.03 2.71-4.14 2.98-4.21 3.26-4.25 3.5-4.25 3.77-4.26 4.04-4.24 3.34-3.3 3.51-3.28 3.68-3.25 3.79-3.18 3.84-3.06 3.84-2.9 3.78-2.69 1.86-1.25 1.82-1.18 1.77-1.1 1.73-1.03 1.68-.95 1.64-.88 3.17-1.55 3.01-1.3 2.9-1.09 2.79-.9 1.36-.39 1.34-.36 2.64-.61 3-.54 2.94-.32 2.88-.1 2.81.18 1.05.13 1.03.19 2.01.47 1.99.6 2.02.69 4.47 1.58 4.87 1.63v4.95l-7.52-2.37-5.11-1.8-4.22-1.12-4.29-.29-4.75.44-5.14 1.11-5.49 1.71-5.96 2.55-6.71 3.72-7.58 5.09-7.98 6.13-7.78 6.68-7.08 6.83-6.33 6.87-5.61 6.86-4.9 6.78-4.08 6.52-3.14 6.05-2.1 5.38-1.09 4.58-.19 3.66.61 2.88 1.17 2.64 1.53 2.86 1.57 3.56zm133.07 95.21v42.19h-.78l-6.11.65-6.13.33h-6.14l-6.14-.33-6.1-.65h-.79v-42.54h32.19zm-32.1 49.43h-.09v-2.41h32.19v2.41h-.36zM138.7 186.64v32.19H96.03v-.79l-.65-6.1-.33-6.14-.04-3.07.04-3.07.33-6.13.65-6.11v-.78zm-47.5 0v32.19h-2.41v-32.19zm232.3 32.19h-42.67v-32.19h42.67v.78l.66 6.11.33 6.13v6.14l-.33 6.14-.66 6.1zm7.25-32.19v32.19h-2.42v-32.19zM193.67 89h.79l6.1-.66 6.14-.33h6.14l6.13.33 6.11.66h.78v42.88h-32.19z" class="st0 svg-logo-fill-color"/>
    <path d="M193.67 81.75h32.19v2.42h-32.19z" class="st0 svg-logo-fill-color"/>
    <path d="M324.83 218.83h.07m-99.04 55.04v-.07M94.7 186.64h-.07m230.48 0h-.02m0 0h-.07m-99.16-98.97v-.07m98.8 97.39.45 1.65m-229.08 31.4-.65-6.1m0 0-.33-6.14m0 0-.04-3.07m0 0 .04-3.07m0 0 .33-6.13m0 0 .65-6.11m-4.83-.78v32.19m109.36 98.29 6.14.33m-12.24-.98 6.1.65m18.41 0 6.11-.65m-12.24.98 6.13-.33m-12.27.33h6.14m13.02 3.85v-3.22m0-1.61h-.78m-30.62 0h-.79m0 4.83h32.19M194.46 89l6.1-.66m0 0 6.14-.33m0 0h6.14m0 0 6.13.33m0 0 6.11.66m.78-4.83h-32.19m130.49 127.77.33-6.14m-.99 12.24.66-6.1m0-18.41-.66-6.11m.99 12.24-.33-6.13m.33 12.27v-6.14m.62 19.17h3.22m-4.83-31.41v-.78m4.83 0v32.19m-4.83 0v-.79m-91.58-136.9-1.79.24m0 0-4.27.37m11.17-1.88-1.04.35m0 0-1.17.33m0 0-1.35.31m0 0-1.55.28m7.72-2.44-.83.42m0 0-.42.19m0 0-.44.2m0 0-.45.18m0 0-.47.18m6.04-2.99-1.76.93m0 0-.84.45m0 0-.83.44m7.42-3.41-2.08.7m0 0-.98.43m0 0-.93.46m6.94-2.1-.62.06m0 0-1.2.18m0 0-1.13.27m7.68-.31-1.41-.17m0 0-1.36-.08m0 0-1.32.01m0 0-.64.04m10.85 1.72-3.15-.93m0 0-2.97-.59m11.21 3.55-1.74-.76m0 0-3.35-1.27m10.77 4.93-3.89-2.05m0 0-1.79-.85m13.85 7.99-4.14-2.7m0 0-4.03-2.39m16.63 11.33-4.25-3.25m0 0-4.21-2.99m12.71 9.75-4.25-3.51m12.75 11.32-4.24-4.04m0 0-4.26-3.77m15.08 14.66-3.28-3.51m0 0-3.3-3.34m13.01 14.31-3.18-3.79m0 0-3.25-3.67m12.39 15.15-2.9-3.85m0 0-3.06-3.84m12.19 16.92-1.11-1.78m0 0-1.18-1.82m0 0-1.25-1.85m0 0-2.69-3.78m10.63 17.44-1.55-3.16m0 0-.88-1.64m0 0-.95-1.68m0 0-1.02-1.73m6.79 14.12-1.09-2.89m0 0-1.3-3.02m4.04 11.4-.36-1.34m0 0-.39-1.36m0 0-.9-2.79m2.8 11.14-.54-3m0 0-.61-2.65m1.57 11.46-.1-2.87m0 0-.32-2.94m.11 9.67.14-1.04m0 0 .17-2.82m-1.57 8.89.6-1.98m0 0 .47-2.01m0 0 .19-1.04m-3.53 11.52 1.58-4.46m0 0 .69-2.03m-3.9 11.37 1.63-4.88M225.86 86.59l7.57-.83m0 0 5.05-1.3m0 0 3.56-1.56m0 0 2.86-1.53m0 0 2.64-1.18m0 0 2.88-.6m0 0 3.66.18m0 0 4.58 1.1m0 0 5.38 2.1m0 0 6.05 3.14m0 0 6.52 4.08m0 0 6.78 4.9m0 0 6.86 5.61m0 0 6.87 6.32m0 0 6.83 7.08m0 0 6.68 7.78m0 0 6.13 7.98m0 0 5.09 7.58m0 0 3.72 6.71m0 0 2.55 5.97m0 0 1.72 5.49m0 0 1.1 5.14m0 0 .44 4.74m0 0-.29 4.3m0 0-1.12 4.22m0 0-1.8 5.11m0 0-2.37 7.52m-231.38 0H91.2m0 32.19h3.22m-5.63-32.1v-.09m104.88 131.44v3.22m.09 2.41h-.09m0-236.04V89m137.08 97.64v.36M88.79 218.83v-.37m0 0v-31.73m137.07 131.26v.09m-32.19-.21v.21m32.19 5.63h-.36m0 0h-31.74m-.09-241.96h32.19M330.75 187v31.74m0 0v.09m-104.89 97.64v1.33m0 0v.19m-32.19-.19v.07m0-233.7v3.22m32.19 0v-3.22m99.25 102.47h3.22M94.42 218.83h.1m0 0h.18m1.33 0H94.7m98.97 98.97v-1.33m131.16-97.64h-1.33m1.61 0h-.21m-99.04 55.1v-.06m0-.29v.22M94.7 186.64h1.33m-1.61 0h.21m99.04-99.25v.09m0 0v.19m131.35 98.97h-.19m-1.33 0h1.33M225.86 89v-1.33m0-.28v.21M96.03 186.64v.78m0 30.62v.79m-7.24-32.19h2.41m-2.41 32.19h2.41m134.66 104.88v-2.41m-32.19 2.41v-2.41M225.86 89h-.78m-30.62 0h-.79m32.19-7.25v2.42m-32.19-2.42v2.42m134.66 134.66h2.42m0-32.19h-2.42" class="st1 svg-logo-stroke-color"/>
    <path d="m94.42 186.64.46-1.65 2.86-13.05 4.67-14.26 6.93-13.36 8.17-12.61 10.1-11.13 11.14-10.11 12.6-8.17 13.44-6.69 14.18-4.91 13.06-2.86 1.64-.45m0 230.69-1.64-.46-13.06-2.86-14.26-4.67-13.36-6.92-12.6-8.18-11.14-10.1-10.1-11.13-8.17-12.61-6.93-13.36-4.67-14.26-2.86-13.06-.36-1.64m131.34 99.25 1.65-.46 13.05-2.86 14.26-4.67 13.37-6.92 12.6-8.18 11.13-10.1 10.11-11.13 8.17-12.61 6.93-13.36 4.67-14.26 2.86-13.06.45-1.64" class="st1 svg-logo-stroke-color"/>
    <path d="m193.67 81.75-4.87-1.63-4.47-1.58-2.02-.69-1.99-.6-2.01-.47-1.03-.19-1.05-.13-2.81-.18-2.88.1-2.94.32-3 .54-2.64.61-1.34.36-1.36.39-2.79.9-2.9 1.09-3.01 1.3-3.17 1.55-1.64.88-1.68.95-1.73 1.03-1.77 1.1-1.82 1.18-1.86 1.25-3.78 2.69-3.84 2.9-3.84 3.06-3.79 3.18-3.68 3.25-3.51 3.28-3.34 3.3-4.04 4.24-3.77 4.26-3.5 4.25-3.26 4.25-2.98 4.21-2.71 4.14-2.39 4.03-2.05 3.89-.84 1.79-.77 1.74-1.27 3.35-.93 3.16-.59 2.96-.17 1.41-.08 1.37.01 1.31.04.64.06.62.19 1.2.26 1.13.71 2.08.43.98.45.93.93 1.76.46.84.44.83.41.83.2.42.19.44.19.45.18.47.35 1.04.33 1.17.3 1.35.28 1.55.25 1.79.37 4.27" class="st1 svg-logo-stroke-color"/>
    <path d="m93.63 186.64-.84-7.57-1.29-5.05-1.57-3.56-1.53-2.86-1.17-2.64-.61-2.88.19-3.66 1.09-4.58 2.1-5.38 3.14-6.05 4.08-6.52 4.9-6.78 5.61-6.86 6.33-6.87 7.08-6.83 7.78-6.68 7.98-6.13 7.58-5.09 6.71-3.72 5.96-2.55 5.49-1.71 5.14-1.11 4.75-.44 4.29.29 4.22 1.12 5.11 1.8 7.52 2.37M88.79 218.83l-1.63 4.87-1.58 4.47-.69 2.02-.6 1.99-.48 2.01-.18 1.03-.14 1.05-.17 2.81.09 2.88.33 2.94.53 3 .62 2.64.35 1.34.39 1.36.9 2.79 1.09 2.9 1.3 3.01 1.55 3.17.88 1.64.95 1.68 1.03 1.73 1.11 1.78 1.18 1.81 1.25 1.86 2.69 3.78 2.9 3.84 3.06 3.84 3.18 3.79 3.25 3.68 3.27 3.51 3.3 3.34 4.25 4.04 4.25 3.77 4.26 3.5 4.24 3.26 4.21 2.98 4.14 2.71 4.04 2.39 3.89 2.05 1.78.84 1.74.77 3.35 1.27 3.16.93 2.97.59 1.41.17 1.36.08 1.31-.01.64-.04.63-.06 1.19-.19 1.14-.26 2.07-.71.99-.43.93-.45 1.75-.93.84-.46.83-.44.83-.41.43-.2.43-.19.45-.19.48-.18 1.03-.35 1.17-.33 1.35-.3 1.56-.28 1.79-.25 4.26-.37" class="st1 svg-logo-stroke-color"/>
    <path d="m193.67 318.87-7.57.84-5.04 1.29-3.56 1.57-2.86 1.53-2.65 1.17-2.88.61-3.66-.19-4.58-1.09-5.38-2.1-6.04-3.14-6.52-4.08-6.79-4.9-6.86-5.61-6.86-6.33-6.83-7.08-6.69-7.78-6.12-7.98-5.1-7.58-3.71-6.71-2.56-5.96-1.71-5.49-1.1-5.14-.45-4.74.3-4.3 1.12-4.22 1.79-5.11 2.37-7.52m132.13 104.88 4.88 1.64 4.47 1.57 2.02.69 1.98.6 2.01.48 1.04.18 1.04.14 2.82.17 2.87-.09 2.94-.33 3-.53 2.65-.62 1.34-.35 1.36-.39 2.79-.9 2.89-1.09 3.02-1.3 3.16-1.55 1.64-.88 1.68-.95 1.73-1.03 1.78-1.11 1.82-1.18 1.85-1.25 3.78-2.69 3.85-2.9 3.84-3.06 3.79-3.18 3.67-3.24 3.51-3.28 3.34-3.3 4.04-4.25 3.77-4.25 3.51-4.26 3.25-4.24 2.99-4.21 2.7-4.14 2.39-4.04 2.05-3.88.85-1.79.76-1.74 1.27-3.35.93-3.16.59-2.97.17-1.41.08-1.36-.01-1.31-.03-.64-.07-.63-.18-1.19-.27-1.14-.7-2.07-.43-.99-.46-.93-.93-1.75-.45-.84-.44-.83-.42-.83-.19-.43-.2-.43-.18-.45-.18-.48-.35-1.03-.33-1.17-.31-1.35-.28-1.56-.24-1.79-.37-4.26" class="st1 svg-logo-stroke-color"/>
    <path d="m325.91 218.83.83 7.57 1.3 5.04 1.56 3.56 1.53 2.86 1.18 2.65.6 2.88-.18 3.66-1.1 4.58-2.1 5.38-3.14 6.04-4.08 6.52-4.9 6.79-5.61 6.86-6.32 6.86-7.08 6.83-7.78 6.69-7.98 6.13-7.58 5.09-6.71 3.71-5.97 2.56-5.49 1.71-5.14 1.1-4.74.45-4.3-.3-4.22-1.12-5.11-1.79-7.52-2.37" class="st1 svg-logo-stroke-color"/>
    <path d="M193.67 131.88c-27.3 6.22-48.65 27.48-54.97 54.76" class="st1 svg-logo-stroke-color"/>
    <path d="M193.67 131.88h32.19M193.67 89v42.88m32.19 0V89" class="st1 svg-logo-stroke-color"/>
    <path d="M225.86 273.93c27.43-6.21 48.82-27.66 54.97-55.1" class="st1 svg-logo-stroke-color"/>
    <path d="M193.67 273.93h32.19m-32.19 0v42.54m32.19 0v-42.54" class="st1 svg-logo-stroke-color"/>
    <path d="M138.7 218.83c6.15 27.44 27.55 48.89 54.97 55.1m87.16-87.29c-6.32-27.28-27.67-48.54-54.97-54.76" class="st1 svg-logo-stroke-color"/>
    <path d="M138.7 186.64v32.19m142.13-32.19v32.19m-184.8-32.19h42.67m-42.67 32.19h42.67m142.13-32.19h42.67m-42.67 32.19h42.67" class="st1 svg-logo-stroke-color"/>
    <path d="m324.66 184.99-2.86-13.05-4.67-14.26-6.93-13.36-8.17-12.61-10.11-11.13-11.13-10.11-12.6-8.17-13.37-6.93-14.26-4.67-14.7-3.03" class="st1 svg-logo-stroke-color"/>
</svg>