<svg xmlns="http://www.w3.org/2000/svg" xmlns:xlink="http://www.w3.org/1999/xlink" version="1.1" id="Calque_1" x="0px" y="0px" style="enable-background:new 0 0 419.53 419.53;" xml:space="preserve" viewBox="81.51 74.48 256.51 256.51"><style type="text/css">.st1{stroke-width:0.5;stroke-linejoin:round;stroke-miterlimit:10;} .st2{stroke-linejoin:round;stroke-miterlimit:10;}</style><g id="LWPOLYLINE_00000139291022807030672650000006152460209751574194_">	<g id="XMLID_00000099636941671874821580000017840192183682458275_">		<g>			<polygon class="st0 svg-fill-color" points="93.73,218.83 91.36,226.35 89.57,231.46 88.45,235.68 88.15,239.98 88.6,244.72 89.7,249.86      91.41,255.35 93.97,261.31 97.68,268.02 102.78,275.6 108.9,283.58 115.59,291.36 122.42,298.44 129.28,304.77 136.14,310.38      142.93,315.28 149.45,319.36 155.49,322.5 160.87,324.6 165.45,325.69 169.11,325.88 171.99,325.27 174.64,324.1 177.5,322.57      181.06,321 186.1,319.71 193.67,318.87 193.67,321.3 193.67,323.71 189.41,324.08 187.62,324.33 186.06,324.61 184.71,324.91      183.54,325.24 182.51,325.59 182.03,325.77 181.58,325.96 181.15,326.15 180.72,326.35 179.89,326.76 179.06,327.2      178.22,327.66 176.47,328.59 175.54,329.04 174.55,329.47 172.48,330.18 171.34,330.44 170.15,330.63 169.52,330.69      168.88,330.73 167.57,330.74 166.21,330.66 164.8,330.49 161.83,329.9 158.67,328.97 155.32,327.7 153.58,326.93 151.8,326.09      147.91,324.04 143.87,321.65 139.73,318.94 135.52,315.96 131.28,312.7 127.02,309.2 122.77,305.43 118.52,301.39 115.22,298.05      111.95,294.54 108.7,290.86 105.52,287.07 102.46,283.23 99.56,279.39 96.87,275.61 95.62,273.75 94.44,271.94 93.33,270.16      92.3,268.43 91.35,266.75 90.47,265.11 88.92,261.94 87.62,258.93 86.53,256.03 85.63,253.24 85.24,251.88 84.89,250.54      84.27,247.9 83.74,244.9 83.41,241.96 83.32,239.08 83.49,236.27 83.63,235.22 83.81,234.19 84.29,232.18 84.89,230.19      85.58,228.17 87.16,223.7 88.79,218.83 91.2,218.83    "></polygon>			<polygon class="st0 svg-fill-color" points="225.86,318.77 233.38,321.14 238.49,322.93 242.71,324.05 247.01,324.35 251.75,323.9 256.89,322.8      262.38,321.09 268.35,318.53 275.06,314.82 282.64,309.73 290.62,303.6 298.4,296.91 305.48,290.08 311.8,283.22 317.41,276.36      322.31,269.57 326.39,263.05 329.53,257.01 331.63,251.63 332.73,247.05 332.91,243.39 332.31,240.51 331.13,237.86 329.6,235      328.04,231.44 326.74,226.4 325.91,218.83 328.33,218.83 330.75,218.83 331.12,223.09 331.36,224.88 331.64,226.44      331.95,227.79 332.28,228.96 332.63,229.99 332.81,230.47 332.99,230.92 333.19,231.35 333.38,231.78 333.8,232.61      334.24,233.44 334.69,234.28 335.62,236.03 336.08,236.96 336.51,237.95 337.21,240.02 337.48,241.16 337.66,242.35      337.73,242.98 337.76,243.62 337.77,244.93 337.69,246.29 337.52,247.7 336.93,250.67 336,253.83 334.73,257.18 333.97,258.92      333.12,260.71 331.07,264.59 328.68,268.63 325.98,272.77 322.99,276.98 319.74,281.22 316.23,285.48 312.46,289.73      308.42,293.98 305.08,297.28 301.57,300.56 297.9,303.8 294.11,306.98 290.27,310.04 286.42,312.94 282.64,315.63 280.79,316.88      278.97,318.06 277.19,319.17 275.46,320.2 273.78,321.15 272.14,322.03 268.98,323.58 265.96,324.88 263.07,325.97      260.28,326.87 258.92,327.26 257.58,327.61 254.93,328.23 251.93,328.76 248.99,329.09 246.12,329.18 243.3,329.01      242.26,328.87 241.22,328.69 239.21,328.21 237.23,327.61 235.21,326.92 230.74,325.35 225.86,323.71 225.86,321.3    "></polygon>			<polygon class="st0 svg-fill-color" points="267.74,79.38 271.63,81.43 275.66,83.82 279.8,86.52 284.01,89.51 288.26,92.76 292.51,96.27      296.77,100.04 301.01,104.08 304.31,107.42 307.59,110.93 310.84,114.6 314.02,118.39 317.08,122.23 319.98,126.08      322.67,129.86 323.92,131.71 325.1,133.53 326.21,135.31 327.23,137.04 328.18,138.72 329.06,140.36 330.61,143.52      331.91,146.54 333,149.43 333.9,152.22 334.29,153.58 334.65,154.92 335.26,157.57 335.8,160.57 336.12,163.51 336.22,166.38      336.05,169.2 335.91,170.24 335.72,171.28 335.25,173.29 334.65,175.27 333.96,177.3 332.38,181.76 330.75,186.64 328.33,186.64      325.8,186.64 328.17,179.12 329.97,174.01 331.09,169.79 331.38,165.49 330.94,160.75 329.84,155.61 328.12,150.12      325.57,144.15 321.85,137.44 316.76,129.86 310.63,121.88 303.95,114.1 297.12,107.02 290.25,100.7 283.39,95.09 276.61,90.19      270.09,86.11 264.04,82.97 258.66,80.87 254.08,79.77 250.42,79.59 247.54,80.19 244.9,81.37 242.04,82.9 238.48,84.46      233.43,85.76 225.86,86.59 225.86,84.17 225.86,81.75 230.13,81.38 231.92,81.14 233.47,80.86 234.82,80.55 235.99,80.22      237.03,79.87 237.5,79.69 237.95,79.51 238.39,79.31 238.81,79.12 239.64,78.7 240.47,78.26 241.31,77.81 243.07,76.88      244,76.42 244.98,75.99 247.06,75.29 248.19,75.02 249.39,74.84 250.01,74.78 250.65,74.74 251.97,74.73 253.33,74.81      254.74,74.98 257.71,75.57 260.86,76.5 264.21,77.77 265.95,78.53    "></polygon>			<polygon class="st0 svg-fill-color" points="92.79,179.07 93.63,186.64 91.2,186.64 88.79,186.64 88.42,182.37 88.17,180.58 87.89,179.03      87.59,177.68 87.26,176.51 86.91,175.47 86.73,175 86.54,174.55 86.35,174.11 86.15,173.69 85.74,172.86 85.3,172.03      84.84,171.19 83.91,169.43 83.46,168.5 83.03,167.52 82.32,165.44 82.06,164.31 81.87,163.11 81.81,162.49 81.77,161.85      81.76,160.54 81.84,159.17 82.01,157.76 82.6,154.8 83.53,151.64 84.8,148.29 85.57,146.55 86.41,144.76 88.46,140.87      90.85,136.84 93.56,132.7 96.54,128.49 99.8,124.24 103.3,119.99 107.07,115.73 111.11,111.49 114.45,108.19 117.96,104.91      121.64,101.66 125.43,98.48 129.27,95.42 133.11,92.52 136.89,89.83 138.75,88.58 140.57,87.4 142.34,86.3 144.07,85.27      145.75,84.32 147.39,83.44 150.56,81.89 153.57,80.59 156.47,79.5 159.26,78.6 160.62,78.21 161.96,77.85 164.6,77.24      167.6,76.7 170.54,76.38 173.42,76.28 176.23,76.46 177.28,76.59 178.31,76.78 180.32,77.25 182.31,77.85 184.33,78.54      188.8,80.12 193.67,81.75 193.67,84.17 193.67,86.7 186.15,84.33 181.04,82.53 176.82,81.41 172.53,81.12 167.78,81.56      162.64,82.67 157.15,84.38 151.19,86.93 144.48,90.65 136.9,95.74 128.92,101.87 121.14,108.55 114.06,115.38 107.73,122.25      102.12,129.11 97.22,135.89 93.14,142.41 90,148.46 87.9,153.84 86.81,158.42 86.62,162.08 87.23,164.96 88.4,167.6      89.93,170.46 91.5,174.02    "></polygon>			<polygon class="st0 svg-fill-color" points="225.86,274.28 225.86,316.47 225.08,316.47 218.97,317.12 212.84,317.45 206.7,317.45      200.56,317.12 194.46,316.47 193.67,316.47 193.67,273.93 225.86,273.93    "></polygon>			<polygon class="st0 svg-fill-color" points="193.76,323.71 193.67,323.71 193.67,321.3 225.86,321.3 225.86,323.71 225.5,323.71    "></polygon>			<polygon class="st0 svg-fill-color" points="138.7,186.64 138.7,218.83 96.03,218.83 96.03,218.04 95.38,211.94 95.05,205.8 95.01,202.73      95.05,199.66 95.38,193.53 96.03,187.42 96.03,186.64    "></polygon>			<polygon class="st0 svg-fill-color" points="91.2,186.64 91.2,218.83 88.79,218.83 88.79,218.46 88.79,186.73 88.79,186.64    "></polygon>			<polygon class="st0 svg-fill-color" points="323.5,218.83 280.83,218.83 280.83,186.64 323.5,186.64 323.5,187.42 324.16,193.53 324.49,199.66      324.49,205.8 324.16,211.94 323.5,218.04    "></polygon>			<polygon class="st0 svg-fill-color" points="330.75,186.64 330.75,187 330.75,218.74 330.75,218.83 328.33,218.83 328.33,186.64    "></polygon>			<polygon class="st0 svg-fill-color" points="193.67,89 194.46,89 200.56,88.34 206.7,88.01 212.84,88.01 218.97,88.34 225.08,89 225.86,89      225.86,131.88 193.67,131.88    "></polygon>			<rect x="193.67" y="81.75" class="st0 svg-fill-color" width="32.19" height="2.42"></rect>		</g>		<g>			<line class="st1 svg-stroke-color" x1="324.83" y1="218.83" x2="324.9" y2="218.83"></line>			<line class="st1 svg-stroke-color" x1="225.86" y1="273.87" x2="225.86" y2="273.8"></line>			<line class="st1 svg-stroke-color" x1="94.7" y1="186.64" x2="94.63" y2="186.64"></line>			<line class="st1 svg-stroke-color" x1="325.11" y1="186.64" x2="325.09" y2="186.64"></line>			<line class="st1 svg-stroke-color" x1="325.09" y1="186.64" x2="325.02" y2="186.64"></line>			<line class="st1 svg-stroke-color" x1="225.86" y1="87.67" x2="225.86" y2="87.6"></line>			<line class="st1 svg-stroke-color" x1="324.66" y1="184.99" x2="325.11" y2="186.64"></line>			<line class="st1 svg-stroke-color" x1="96.03" y1="218.04" x2="95.38" y2="211.94"></line>			<line class="st1 svg-stroke-color" x1="95.38" y1="211.94" x2="95.05" y2="205.8"></line>			<line class="st1 svg-stroke-color" x1="95.05" y1="205.8" x2="95.01" y2="202.73"></line>			<line class="st1 svg-stroke-color" x1="95.01" y1="202.73" x2="95.05" y2="199.66"></line>			<line class="st1 svg-stroke-color" x1="95.05" y1="199.66" x2="95.38" y2="193.53"></line>			<line class="st1 svg-stroke-color" x1="95.38" y1="193.53" x2="96.03" y2="187.42"></line>			<line class="st1 svg-stroke-color" x1="91.2" y1="186.64" x2="91.2" y2="218.83"></line>			<line class="st1 svg-stroke-color" x1="200.56" y1="317.12" x2="206.7" y2="317.45"></line>			<line class="st1 svg-stroke-color" x1="194.46" y1="316.47" x2="200.56" y2="317.12"></line>			<line class="st1 svg-stroke-color" x1="218.97" y1="317.12" x2="225.08" y2="316.47"></line>			<line class="st1 svg-stroke-color" x1="212.84" y1="317.45" x2="218.97" y2="317.12"></line>			<line class="st1 svg-stroke-color" x1="206.7" y1="317.45" x2="212.84" y2="317.45"></line>			<polyline class="st1 svg-stroke-color" points="225.86,321.3 225.86,318.77 225.86,318.08    "></polyline>			<line class="st1 svg-stroke-color" x1="225.86" y1="316.47" x2="225.08" y2="316.47"></line>			<line class="st1 svg-stroke-color" x1="194.46" y1="316.47" x2="193.67" y2="316.47"></line>			<line class="st1 svg-stroke-color" x1="193.67" y1="321.3" x2="225.86" y2="321.3"></line>			<line class="st1 svg-stroke-color" x1="194.46" y1="89" x2="200.56" y2="88.34"></line>			<line class="st1 svg-stroke-color" x1="200.56" y1="88.34" x2="206.7" y2="88.01"></line>			<line class="st1 svg-stroke-color" x1="206.7" y1="88.01" x2="212.84" y2="88.01"></line>			<line class="st1 svg-stroke-color" x1="212.84" y1="88.01" x2="218.97" y2="88.34"></line>			<line class="st1 svg-stroke-color" x1="218.97" y1="88.34" x2="225.08" y2="89"></line>			<line class="st1 svg-stroke-color" x1="225.86" y1="84.17" x2="193.67" y2="84.17"></line>			<line class="st1 svg-stroke-color" x1="324.16" y1="211.94" x2="324.49" y2="205.8"></line>			<line class="st1 svg-stroke-color" x1="323.5" y1="218.04" x2="324.16" y2="211.94"></line>			<line class="st1 svg-stroke-color" x1="324.16" y1="193.53" x2="323.5" y2="187.42"></line>			<line class="st1 svg-stroke-color" x1="324.49" y1="199.66" x2="324.16" y2="193.53"></line>			<line class="st1 svg-stroke-color" x1="324.49" y1="205.8" x2="324.49" y2="199.66"></line>			<polyline class="st1 svg-stroke-color" points="325.11,218.83 325.91,218.83 328.33,218.83    "></polyline>			<line class="st1 svg-stroke-color" x1="323.5" y1="187.42" x2="323.5" y2="186.64"></line>			<line class="st1 svg-stroke-color" x1="328.33" y1="186.64" x2="328.33" y2="218.83"></line>			<line class="st1 svg-stroke-color" x1="323.5" y1="218.83" x2="323.5" y2="218.04"></line>			<line class="st1 svg-stroke-color" x1="231.92" y1="81.14" x2="230.13" y2="81.38"></line>			<line class="st1 svg-stroke-color" x1="230.13" y1="81.38" x2="225.86" y2="81.75"></line>			<line class="st1 svg-stroke-color" x1="237.03" y1="79.87" x2="235.99" y2="80.22"></line>			<line class="st1 svg-stroke-color" x1="235.99" y1="80.22" x2="234.82" y2="80.55"></line>			<line class="st1 svg-stroke-color" x1="234.82" y1="80.55" x2="233.47" y2="80.86"></line>			<line class="st1 svg-stroke-color" x1="233.47" y1="80.86" x2="231.92" y2="81.14"></line>			<line class="st1 svg-stroke-color" x1="239.64" y1="78.7" x2="238.81" y2="79.12"></line>			<line class="st1 svg-stroke-color" x1="238.81" y1="79.12" x2="238.39" y2="79.31"></line>			<line class="st1 svg-stroke-color" x1="238.39" y1="79.31" x2="237.95" y2="79.51"></line>			<line class="st1 svg-stroke-color" x1="237.95" y1="79.51" x2="237.5" y2="79.69"></line>			<line class="st1 svg-stroke-color" x1="237.5" y1="79.69" x2="237.03" y2="79.87"></line>			<line class="st1 svg-stroke-color" x1="243.07" y1="76.88" x2="241.31" y2="77.81"></line>			<line class="st1 svg-stroke-color" x1="241.31" y1="77.81" x2="240.47" y2="78.26"></line>			<line class="st1 svg-stroke-color" x1="240.47" y1="78.26" x2="239.64" y2="78.7"></line>			<line class="st1 svg-stroke-color" x1="247.06" y1="75.29" x2="244.98" y2="75.99"></line>			<line class="st1 svg-stroke-color" x1="244.98" y1="75.99" x2="244" y2="76.42"></line>			<line class="st1 svg-stroke-color" x1="244" y1="76.42" x2="243.07" y2="76.88"></line>			<line class="st1 svg-stroke-color" x1="250.01" y1="74.78" x2="249.39" y2="74.84"></line>			<line class="st1 svg-stroke-color" x1="249.39" y1="74.84" x2="248.19" y2="75.02"></line>			<line class="st1 svg-stroke-color" x1="248.19" y1="75.02" x2="247.06" y2="75.29"></line>			<line class="st1 svg-stroke-color" x1="254.74" y1="74.98" x2="253.33" y2="74.81"></line>			<line class="st1 svg-stroke-color" x1="253.33" y1="74.81" x2="251.97" y2="74.73"></line>			<line class="st1 svg-stroke-color" x1="251.97" y1="74.73" x2="250.65" y2="74.74"></line>			<line class="st1 svg-stroke-color" x1="250.65" y1="74.74" x2="250.01" y2="74.78"></line>			<line class="st1 svg-stroke-color" x1="260.86" y1="76.5" x2="257.71" y2="75.57"></line>			<line class="st1 svg-stroke-color" x1="257.71" y1="75.57" x2="254.74" y2="74.98"></line>			<line class="st1 svg-stroke-color" x1="265.95" y1="78.53" x2="264.21" y2="77.77"></line>			<line class="st1 svg-stroke-color" x1="264.21" y1="77.77" x2="260.86" y2="76.5"></line>			<line class="st1 svg-stroke-color" x1="271.63" y1="81.43" x2="267.74" y2="79.38"></line>			<line class="st1 svg-stroke-color" x1="267.74" y1="79.38" x2="265.95" y2="78.53"></line>			<line class="st1 svg-stroke-color" x1="279.8" y1="86.52" x2="275.66" y2="83.82"></line>			<line class="st1 svg-stroke-color" x1="275.66" y1="83.82" x2="271.63" y2="81.43"></line>			<line class="st1 svg-stroke-color" x1="288.26" y1="92.76" x2="284.01" y2="89.51"></line>			<line class="st1 svg-stroke-color" x1="284.01" y1="89.51" x2="279.8" y2="86.52"></line>			<line class="st1 svg-stroke-color" x1="292.51" y1="96.27" x2="288.26" y2="92.76"></line>			<line class="st1 svg-stroke-color" x1="301.01" y1="104.08" x2="296.77" y2="100.04"></line>			<line class="st1 svg-stroke-color" x1="296.77" y1="100.04" x2="292.51" y2="96.27"></line>			<line class="st1 svg-stroke-color" x1="307.59" y1="110.93" x2="304.31" y2="107.42"></line>			<line class="st1 svg-stroke-color" x1="304.31" y1="107.42" x2="301.01" y2="104.08"></line>			<line class="st1 svg-stroke-color" x1="314.02" y1="118.39" x2="310.84" y2="114.6"></line>			<line class="st1 svg-stroke-color" x1="310.84" y1="114.6" x2="307.59" y2="110.93"></line>			<line class="st1 svg-stroke-color" x1="319.98" y1="126.08" x2="317.08" y2="122.23"></line>			<line class="st1 svg-stroke-color" x1="317.08" y1="122.23" x2="314.02" y2="118.39"></line>			<line class="st1 svg-stroke-color" x1="326.21" y1="135.31" x2="325.1" y2="133.53"></line>			<line class="st1 svg-stroke-color" x1="325.1" y1="133.53" x2="323.92" y2="131.71"></line>			<line class="st1 svg-stroke-color" x1="323.92" y1="131.71" x2="322.67" y2="129.86"></line>			<line class="st1 svg-stroke-color" x1="322.67" y1="129.86" x2="319.98" y2="126.08"></line>			<line class="st1 svg-stroke-color" x1="330.61" y1="143.52" x2="329.06" y2="140.36"></line>			<line class="st1 svg-stroke-color" x1="329.06" y1="140.36" x2="328.18" y2="138.72"></line>			<line class="st1 svg-stroke-color" x1="328.18" y1="138.72" x2="327.23" y2="137.04"></line>			<line class="st1 svg-stroke-color" x1="327.23" y1="137.04" x2="326.21" y2="135.31"></line>			<line class="st1 svg-stroke-color" x1="333" y1="149.43" x2="331.91" y2="146.54"></line>			<line class="st1 svg-stroke-color" x1="331.91" y1="146.54" x2="330.61" y2="143.52"></line>			<line class="st1 svg-stroke-color" x1="334.65" y1="154.92" x2="334.29" y2="153.58"></line>			<line class="st1 svg-stroke-color" x1="334.29" y1="153.58" x2="333.9" y2="152.22"></line>			<line class="st1 svg-stroke-color" x1="333.9" y1="152.22" x2="333" y2="149.43"></line>			<line class="st1 svg-stroke-color" x1="335.8" y1="160.57" x2="335.26" y2="157.57"></line>			<line class="st1 svg-stroke-color" x1="335.26" y1="157.57" x2="334.65" y2="154.92"></line>			<line class="st1 svg-stroke-color" x1="336.22" y1="166.38" x2="336.12" y2="163.51"></line>			<line class="st1 svg-stroke-color" x1="336.12" y1="163.51" x2="335.8" y2="160.57"></line>			<line class="st1 svg-stroke-color" x1="335.91" y1="170.24" x2="336.05" y2="169.2"></line>			<line class="st1 svg-stroke-color" x1="336.05" y1="169.2" x2="336.22" y2="166.38"></line>			<line class="st1 svg-stroke-color" x1="334.65" y1="175.27" x2="335.25" y2="173.29"></line>			<line class="st1 svg-stroke-color" x1="335.25" y1="173.29" x2="335.72" y2="171.28"></line>			<line class="st1 svg-stroke-color" x1="335.72" y1="171.28" x2="335.91" y2="170.24"></line>			<line class="st1 svg-stroke-color" x1="332.38" y1="181.76" x2="333.96" y2="177.3"></line>			<line class="st1 svg-stroke-color" x1="333.96" y1="177.3" x2="334.65" y2="175.27"></line>			<line class="st1 svg-stroke-color" x1="330.75" y1="186.64" x2="332.38" y2="181.76"></line>			<line class="st1 svg-stroke-color" x1="225.86" y1="86.59" x2="233.43" y2="85.76"></line>			<line class="st1 svg-stroke-color" x1="233.43" y1="85.76" x2="238.48" y2="84.46"></line>			<line class="st1 svg-stroke-color" x1="238.48" y1="84.46" x2="242.04" y2="82.9"></line>			<line class="st1 svg-stroke-color" x1="242.04" y1="82.9" x2="244.9" y2="81.37"></line>			<line class="st1 svg-stroke-color" x1="244.9" y1="81.37" x2="247.54" y2="80.19"></line>			<line class="st1 svg-stroke-color" x1="247.54" y1="80.19" x2="250.42" y2="79.59"></line>			<line class="st1 svg-stroke-color" x1="250.42" y1="79.59" x2="254.08" y2="79.77"></line>			<line class="st1 svg-stroke-color" x1="254.08" y1="79.77" x2="258.66" y2="80.87"></line>			<line class="st1 svg-stroke-color" x1="258.66" y1="80.87" x2="264.04" y2="82.97"></line>			<line class="st1 svg-stroke-color" x1="264.04" y1="82.97" x2="270.09" y2="86.11"></line>			<line class="st1 svg-stroke-color" x1="270.09" y1="86.11" x2="276.61" y2="90.19"></line>			<line class="st1 svg-stroke-color" x1="276.61" y1="90.19" x2="283.39" y2="95.09"></line>			<line class="st1 svg-stroke-color" x1="283.39" y1="95.09" x2="290.25" y2="100.7"></line>			<line class="st1 svg-stroke-color" x1="290.25" y1="100.7" x2="297.12" y2="107.02"></line>			<line class="st1 svg-stroke-color" x1="297.12" y1="107.02" x2="303.95" y2="114.1"></line>			<line class="st1 svg-stroke-color" x1="303.95" y1="114.1" x2="310.63" y2="121.88"></line>			<line class="st1 svg-stroke-color" x1="310.63" y1="121.88" x2="316.76" y2="129.86"></line>			<line class="st1 svg-stroke-color" x1="316.76" y1="129.86" x2="321.85" y2="137.44"></line>			<line class="st1 svg-stroke-color" x1="321.85" y1="137.44" x2="325.57" y2="144.15"></line>			<line class="st1 svg-stroke-color" x1="325.57" y1="144.15" x2="328.12" y2="150.12"></line>			<line class="st1 svg-stroke-color" x1="328.12" y1="150.12" x2="329.84" y2="155.61"></line>			<line class="st1 svg-stroke-color" x1="329.84" y1="155.61" x2="330.94" y2="160.75"></line>			<line class="st1 svg-stroke-color" x1="330.94" y1="160.75" x2="331.38" y2="165.49"></line>			<line class="st1 svg-stroke-color" x1="331.38" y1="165.49" x2="331.09" y2="169.79"></line>			<line class="st1 svg-stroke-color" x1="331.09" y1="169.79" x2="329.97" y2="174.01"></line>			<line class="st1 svg-stroke-color" x1="329.97" y1="174.01" x2="328.17" y2="179.12"></line>			<line class="st1 svg-stroke-color" x1="328.17" y1="179.12" x2="325.8" y2="186.64"></line>			<polyline class="st1 svg-stroke-color" points="94.42,186.64 93.63,186.64 91.2,186.64    "></polyline>			<polyline class="st1 svg-stroke-color" points="91.2,218.83 93.73,218.83 94.42,218.83    "></polyline>			<line class="st1 svg-stroke-color" x1="88.79" y1="186.73" x2="88.79" y2="186.64"></line>			<polyline class="st1 svg-stroke-color" points="193.67,318.08 193.67,318.87 193.67,321.3    "></polyline>			<line class="st1 svg-stroke-color" x1="193.76" y1="323.71" x2="193.67" y2="323.71"></line>			<line class="st1 svg-stroke-color" x1="193.67" y1="87.67" x2="193.67" y2="89"></line>			<line class="st1 svg-stroke-color" x1="330.75" y1="186.64" x2="330.75" y2="187"></line>			<line class="st1 svg-stroke-color" x1="88.79" y1="218.83" x2="88.79" y2="218.46"></line>			<line class="st1 svg-stroke-color" x1="88.79" y1="218.46" x2="88.79" y2="186.73"></line>			<line class="st1 svg-stroke-color" x1="225.86" y1="317.99" x2="225.86" y2="318.08"></line>			<line class="st1 svg-stroke-color" x1="193.67" y1="317.87" x2="193.67" y2="318.08"></line>			<line class="st1 svg-stroke-color" x1="225.86" y1="323.71" x2="225.5" y2="323.71"></line>			<line class="st1 svg-stroke-color" x1="225.5" y1="323.71" x2="193.76" y2="323.71"></line>			<line class="st1 svg-stroke-color" x1="193.67" y1="81.75" x2="225.86" y2="81.75"></line>			<line class="st1 svg-stroke-color" x1="330.75" y1="187" x2="330.75" y2="218.74"></line>			<line class="st1 svg-stroke-color" x1="330.75" y1="218.74" x2="330.75" y2="218.83"></line>			<line class="st1 svg-stroke-color" x1="225.86" y1="316.47" x2="225.86" y2="317.8"></line>			<line class="st1 svg-stroke-color" x1="225.86" y1="317.8" x2="225.86" y2="317.99"></line>			<line class="st1 svg-stroke-color" x1="193.67" y1="317.8" x2="193.67" y2="317.87"></line>			<polyline class="st1 svg-stroke-color" points="193.67,84.17 193.67,86.7 193.67,87.39    "></polyline>			<polyline class="st1 svg-stroke-color" points="225.86,87.39 225.86,86.59 225.86,84.17    "></polyline>			<polyline class="st1 svg-stroke-color" points="325.11,186.64 325.8,186.64 328.33,186.64    "></polyline>			<line class="st1 svg-stroke-color" x1="94.42" y1="218.83" x2="94.52" y2="218.83"></line>			<line class="st1 svg-stroke-color" x1="94.52" y1="218.83" x2="94.7" y2="218.83"></line>			<line class="st1 svg-stroke-color" x1="96.03" y1="218.83" x2="94.7" y2="218.83"></line>			<line class="st1 svg-stroke-color" x1="193.67" y1="317.8" x2="193.67" y2="316.47"></line>			<line class="st1 svg-stroke-color" x1="324.83" y1="218.83" x2="323.5" y2="218.83"></line>			<line class="st1 svg-stroke-color" x1="325.11" y1="218.83" x2="324.9" y2="218.83"></line>			<line class="st1 svg-stroke-color" x1="225.86" y1="273.93" x2="225.86" y2="273.87"></line>			<line class="st1 svg-stroke-color" x1="225.86" y1="273.58" x2="225.86" y2="273.8"></line>			<line class="st1 svg-stroke-color" x1="94.7" y1="186.64" x2="96.03" y2="186.64"></line>			<line class="st1 svg-stroke-color" x1="94.42" y1="186.64" x2="94.63" y2="186.64"></line>			<line class="st1 svg-stroke-color" x1="193.67" y1="87.39" x2="193.67" y2="87.48"></line>			<line class="st1 svg-stroke-color" x1="193.67" y1="87.48" x2="193.67" y2="87.67"></line>			<line class="st1 svg-stroke-color" x1="325.02" y1="186.64" x2="324.83" y2="186.64"></line>			<line class="st1 svg-stroke-color" x1="323.5" y1="186.64" x2="324.83" y2="186.64"></line>			<line class="st1 svg-stroke-color" x1="225.86" y1="89" x2="225.86" y2="87.67"></line>			<line class="st1 svg-stroke-color" x1="225.86" y1="87.39" x2="225.86" y2="87.6"></line>			<line class="st1 svg-stroke-color" x1="96.03" y1="186.64" x2="96.03" y2="187.42"></line>			<line class="st1 svg-stroke-color" x1="96.03" y1="218.04" x2="96.03" y2="218.83"></line>			<line class="st1 svg-stroke-color" x1="88.79" y1="186.64" x2="91.2" y2="186.64"></line>			<line class="st1 svg-stroke-color" x1="88.79" y1="218.83" x2="91.2" y2="218.83"></line>			<line class="st1 svg-stroke-color" x1="225.86" y1="323.71" x2="225.86" y2="321.3"></line>			<line class="st1 svg-stroke-color" x1="193.67" y1="323.71" x2="193.67" y2="321.3"></line>			<line class="st1 svg-stroke-color" x1="225.86" y1="89" x2="225.08" y2="89"></line>			<line class="st1 svg-stroke-color" x1="194.46" y1="89" x2="193.67" y2="89"></line>			<line class="st1 svg-stroke-color" x1="225.86" y1="81.75" x2="225.86" y2="84.17"></line>			<line class="st1 svg-stroke-color" x1="193.67" y1="81.75" x2="193.67" y2="84.17"></line>			<line class="st1 svg-stroke-color" x1="328.33" y1="218.83" x2="330.75" y2="218.83"></line>			<line class="st1 svg-stroke-color" x1="330.75" y1="186.64" x2="328.33" y2="186.64"></line>			<polyline class="st2 svg-stroke-color" points="94.42,186.64 94.88,184.99 97.74,171.94 102.41,157.68 109.34,144.32 117.51,131.71 127.61,120.58      138.75,110.47 151.35,102.3 164.79,95.61 178.97,90.7 192.03,87.84 193.67,87.39    "></polyline>			<polyline class="st2 svg-stroke-color" points="193.67,318.08 192.03,317.62 178.97,314.76 164.71,310.09 151.35,303.17 138.75,294.99      127.61,284.89 117.51,273.76 109.34,261.15 102.41,247.79 97.74,233.53 94.88,220.47 94.52,218.83    "></polyline>			<polyline class="st2 svg-stroke-color" points="225.86,318.08 227.51,317.62 240.56,314.76 254.82,310.09 268.19,303.17 280.79,294.99      291.92,284.89 302.03,273.76 310.2,261.15 317.13,247.79 321.8,233.53 324.66,220.47 325.11,218.83    "></polyline>			<polyline class="st1 svg-stroke-color" points="193.67,81.75 188.8,80.12 184.33,78.54 182.31,77.85 180.32,77.25 178.31,76.78 177.28,76.59      176.23,76.46 173.42,76.28 170.54,76.38 167.6,76.7 164.6,77.24 161.96,77.85 160.62,78.21 159.26,78.6 156.47,79.5      153.57,80.59 150.56,81.89 147.39,83.44 145.75,84.32 144.07,85.27 142.34,86.3 140.57,87.4 138.75,88.58 136.89,89.83      133.11,92.52 129.27,95.42 125.43,98.48 121.64,101.66 117.96,104.91 114.45,108.19 111.11,111.49 107.07,115.73 103.3,119.99      99.8,124.24 96.54,128.49 93.56,132.7 90.85,136.84 88.46,140.87 86.41,144.76 85.57,146.55 84.8,148.29 83.53,151.64      82.6,154.8 82.01,157.76 81.84,159.17 81.76,160.54 81.77,161.85 81.81,162.49 81.87,163.11 82.06,164.31 82.32,165.44      83.03,167.52 83.46,168.5 83.91,169.43 84.84,171.19 85.3,172.03 85.74,172.86 86.15,173.69 86.35,174.11 86.54,174.55      86.73,175 86.91,175.47 87.26,176.51 87.59,177.68 87.89,179.03 88.17,180.58 88.42,182.37 88.79,186.64    "></polyline>			<polyline class="st1 svg-stroke-color" points="93.63,186.64 92.79,179.07 91.5,174.02 89.93,170.46 88.4,167.6 87.23,164.96 86.62,162.08      86.81,158.42 87.9,153.84 90,148.46 93.14,142.41 97.22,135.89 102.12,129.11 107.73,122.25 114.06,115.38 121.14,108.55      128.92,101.87 136.9,95.74 144.48,90.65 151.19,86.93 157.15,84.38 162.64,82.67 167.78,81.56 172.53,81.12 176.82,81.41      181.04,82.53 186.15,84.33 193.67,86.7    "></polyline>			<polyline class="st1 svg-stroke-color" points="88.79,218.83 87.16,223.7 85.58,228.17 84.89,230.19 84.29,232.18 83.81,234.19 83.63,235.22      83.49,236.27 83.32,239.08 83.41,241.96 83.74,244.9 84.27,247.9 84.89,250.54 85.24,251.88 85.63,253.24 86.53,256.03      87.62,258.93 88.92,261.94 90.47,265.11 91.35,266.75 92.3,268.43 93.33,270.16 94.44,271.94 95.62,273.75 96.87,275.61      99.56,279.39 102.46,283.23 105.52,287.07 108.7,290.86 111.95,294.54 115.22,298.05 118.52,301.39 122.77,305.43 127.02,309.2      131.28,312.7 135.52,315.96 139.73,318.94 143.87,321.65 147.91,324.04 151.8,326.09 153.58,326.93 155.32,327.7 158.67,328.97      161.83,329.9 164.8,330.49 166.21,330.66 167.57,330.74 168.88,330.73 169.52,330.69 170.15,330.63 171.34,330.44 172.48,330.18      174.55,329.47 175.54,329.04 176.47,328.59 178.22,327.66 179.06,327.2 179.89,326.76 180.72,326.35 181.15,326.15      181.58,325.96 182.03,325.77 182.51,325.59 183.54,325.24 184.71,324.91 186.06,324.61 187.62,324.33 189.41,324.08      193.67,323.71    "></polyline>			<polyline class="st1 svg-stroke-color" points="193.67,318.87 186.1,319.71 181.06,321 177.5,322.57 174.64,324.1 171.99,325.27 169.11,325.88      165.45,325.69 160.87,324.6 155.49,322.5 149.45,319.36 142.93,315.28 136.14,310.38 129.28,304.77 122.42,298.44 115.59,291.36      108.9,283.58 102.78,275.6 97.68,268.02 93.97,261.31 91.41,255.35 89.7,249.86 88.6,244.72 88.15,239.98 88.45,235.68      89.57,231.46 91.36,226.35 93.73,218.83    "></polyline>			<polyline class="st1 svg-stroke-color" points="225.86,323.71 230.74,325.35 235.21,326.92 237.23,327.61 239.21,328.21 241.22,328.69      242.26,328.87 243.3,329.01 246.12,329.18 248.99,329.09 251.93,328.76 254.93,328.23 257.58,327.61 258.92,327.26      260.28,326.87 263.07,325.97 265.96,324.88 268.98,323.58 272.14,322.03 273.78,321.15 275.46,320.2 277.19,319.17      278.97,318.06 280.79,316.88 282.64,315.63 286.42,312.94 290.27,310.04 294.11,306.98 297.9,303.8 301.57,300.56 305.08,297.28      308.42,293.98 312.46,289.73 316.23,285.48 319.74,281.22 322.99,276.98 325.98,272.77 328.68,268.63 331.07,264.59      333.12,260.71 333.97,258.92 334.73,257.18 336,253.83 336.93,250.67 337.52,247.7 337.69,246.29 337.77,244.93 337.76,243.62      337.73,242.98 337.66,242.35 337.48,241.16 337.21,240.02 336.51,237.95 336.08,236.96 335.62,236.03 334.69,234.28      334.24,233.44 333.8,232.61 333.38,231.78 333.19,231.35 332.99,230.92 332.81,230.47 332.63,229.99 332.28,228.96      331.95,227.79 331.64,226.44 331.36,224.88 331.12,223.09 330.75,218.83    "></polyline>			<polyline class="st1 svg-stroke-color" points="325.91,218.83 326.74,226.4 328.04,231.44 329.6,235 331.13,237.86 332.31,240.51 332.91,243.39      332.73,247.05 331.63,251.63 329.53,257.01 326.39,263.05 322.31,269.57 317.41,276.36 311.8,283.22 305.48,290.08 298.4,296.91      290.62,303.6 282.64,309.73 275.06,314.82 268.35,318.53 262.38,321.09 256.89,322.8 251.75,323.9 247.01,324.35 242.71,324.05      238.49,322.93 233.38,321.14 225.86,318.77    "></polyline>			<path class="st2 svg-stroke-color" d="M193.67,131.88c-27.3,6.22-48.65,27.48-54.97,54.76"></path>			<line class="st1 svg-stroke-color" x1="193.67" y1="131.88" x2="225.86" y2="131.88"></line>			<line class="st1 svg-stroke-color" x1="193.67" y1="89" x2="193.67" y2="131.88"></line>			<line class="st1 svg-stroke-color" x1="225.86" y1="131.88" x2="225.86" y2="89"></line>			<path class="st2 svg-stroke-color" d="M225.86,273.93c27.43-6.21,48.82-27.66,54.97-55.1"></path>			<line class="st1 svg-stroke-color" x1="193.67" y1="273.93" x2="225.86" y2="273.93"></line>			<line class="st1 svg-stroke-color" x1="193.67" y1="273.93" x2="193.67" y2="316.47"></line>			<polyline class="st1 svg-stroke-color" points="225.86,316.47 225.86,274.28 225.86,273.93    "></polyline>			<path class="st2 svg-stroke-color" d="M138.7,218.83c6.15,27.44,27.55,48.89,54.97,55.1"></path>			<path class="st2 svg-stroke-color" d="M280.83,186.64c-6.32-27.28-27.67-48.54-54.97-54.76"></path>			<line class="st1 svg-stroke-color" x1="138.7" y1="186.64" x2="138.7" y2="218.83"></line>			<line class="st1 svg-stroke-color" x1="280.83" y1="186.64" x2="280.83" y2="218.83"></line>			<line class="st1 svg-stroke-color" x1="96.03" y1="186.64" x2="138.7" y2="186.64"></line>			<line class="st1 svg-stroke-color" x1="96.03" y1="218.83" x2="138.7" y2="218.83"></line>			<line class="st1 svg-stroke-color" x1="280.83" y1="186.64" x2="323.5" y2="186.64"></line>			<line class="st1 svg-stroke-color" x1="280.83" y1="218.83" x2="323.5" y2="218.83"></line>			<polyline class="st2 svg-stroke-color" points="324.66,184.99 321.8,171.94 317.13,157.68 310.2,144.32 302.03,131.71 291.92,120.58      280.79,110.47 268.19,102.3 254.82,95.37 240.56,90.7 225.86,87.67    "></polyline>		</g>	</g></g></svg>