<svg xmlns="http://www.w3.org/2000/svg" xmlns:xlink="http://www.w3.org/1999/xlink" id="Calque_1" class="svg-paris" preserveAspectRatio="xMaxYMin slice"  data-name="Calque 1" viewBox="45.14 0.05 290.81 248.94">
  <defs>
    <style>
      .cls-1 {
        fill: #003b6a;
      }

      .cls-2,
      .cls-3,
      .cls-4 {
        fill: #fff;
      }

      .cls-3,
      .cls-5 {
        stroke-width: .1px;
      }

      .cls-3,
      .cls-5,
      .cls-4 {
        stroke: #003b6a;
      }

      .cls-5,
      .cls-6 {
        fill: none;
      }

      .cls-5,
      .cls-4 {
        stroke-miterlimit: 10;
      }

      .cls-4 {
        stroke-width: .05px;
      }
    </style>
    <clipPath id="clippath">
      <rect class="cls-6" x="1.14" y="65.16" width="419.53" height="221.55"></rect>
    </clipPath>
  </defs>
  <g>
    <path class="cls-2" d="m335.9,235.89v13.05s-3.53-4.61-4.74-6.2c-1.7-2.25-3.38-4.5-5.12-6.72-.67-.85-1.56-1.53-2.16-2.42-3.19-4.75-6.3-9.56-9.47-14.33-1.17-1.76-2.42-3.47-3.64-5.2-.19-.28-.42-.53-.56-.83-1.41-3.23-3.58-5.97-5.79-8.67-1.2-1.48-2.36-2.99-3.57-4.44-3.61-4.32-7.28-8.59-10.83-12.94-1.8-2.21-3.41-4.57-5.09-6.86-.29-.4-2.01-1.33-2.01-1.33-.92-.9-1.96-1.94-3.04-2.94-.3-.28-.71-.43-1.05-.67-.67-.46-1.43-.85-1.98-1.44-2.49-2.67-5.61-4.38-8.88-5.86-3.37-1.53-6.79-2.94-10.12-4.56-.95-.46-1.89-1.31-2.41-2.22-.86-1.52-2.02-2.58-3.46-3.49-2.3-1.47-4.62-2.94-6.78-4.61-2.42-1.89-4.66-4.01-7-6.01-.54-.46-1.2-.77-1.71-1.24-.78-.72-1.77-1.4-2.16-2.31-1.25-2.85-3.63-3.89-6.36-4.63-2.08-.57-4.14-1.23-6.17-1.97-.88-.31-1.65-.93-2.49-1.38-1.01-.55-2.05-1.05-3.07-1.58-.35-.19-.66-.43-.98-.65-1.89-1.15-4.44-2.22-6.2-3.27-1.57-.94-3.13-1.9-4.74-2.76-2.46-1.31-4.99-2.5-7.44-3.83-5.88-3.18-11.73-6.44-17.62-9.63-2.54-1.37-5.11-2.26-8.2-2.02-4.73.37-9.5.13-14.24.09-1.03,0-2.06-.27-3.07-.47-1.95-.39-3.91-1.22-5.84-1.17-4.54.11-9.12-.79-13.62.64-1.92.61-3.96.84-5.95,1.21-1.01.19-2.16.04-3.02.48-2.08,1.09-4.22,2.22-5.99,3.73-2.3,1.96-4.37,4.22-6.35,6.52-1.93,2.23-3.48,4.79-5.45,6.97-1.48,1.62-1.86,3.79-3.41,5.42-1.43,1.51-2.11,3.73-3.13,5.63-.17.32-.44.6-.62.92-.37.65-.68,1.34-1.07,1.98-.16.26-.49.64-.71.62-1.27-.1-1.76.68-2.17,1.67-.19.45-.49.86-.81,1.24-.68.83-1.43,1.62-2.12,2.45-1.88,2.26-3.24,4.92-5.57,6.83-.66.54-1.06,1.39-1.67,2.01-2.24,2.24-3.74,5.19-6.55,6.89-.17.1-.26.32-.39.49-.73.95-1.44,1.91-2.19,2.84-1.4,1.75-2.84,3.46-4.22,5.23-1.25,1.6-2.45,3.25-3.66,4.88-.78,1.05-1.47,2.19-2.34,3.17-2.24,2.5-4.56,4.93-6.85,7.4-1.81,1.96-3.19,4.22-5.36,5.98-2.51,2.05-4.35,4.93-6.48,7.45-.06.06-.07.16-.11.22-.95,1.51-1.91,3-2.91,4.58v-9.88c3.23-4.05,4.72-5.38,8.06-9.35,1.36-1.63,2.59-3.37,3.79-5.11,2.93-4.23,5.71-8.58,8.76-12.73,1.34-1.82,3.23-3.22,4.77-4.91,1.39-1.52,2.63-3.18,3.96-4.76,1.58-1.87,3.21-3.7,4.79-5.58,1.49-1.77,3-3.54,4.42-5.38,1.29-1.66,2.46-3.42,3.73-5.11.26-.34.72-.53,1.09-.79.67-.47,1.37-.91,2.01-1.43,3.25-2.69,4.56-6.67,6.69-10.1.15-.24.24-.54.42-.76,2.09-2.6,4.19-5.19,6.29-7.79.52-.64,1.01-1.31,1.5-1.99,1.06-1.47,2.31-2.68,4-3.47.88-.42,1.66-1.07,2.41-1.71,2.08-1.79,4.12-3.62,6.18-5.44.12-.1.27-.19.42-.27,3.14-1.72,6.26-3.48,9.44-5.14.86-.45,3.63-.6,3.63-.6.9,0,1.72.04,2.53,0,2.45-.12,4.89-.27,7.34-.41.62-.04,1.25-.03,1.86-.14,1.21-.22,2.4-.75,3.59-.72,4.08.12,8.13-.2,12.26.61,4.19.81,8.6.48,12.91.69.82.04,1.63.24,2.43.41.8.18,1.59.38,2.37.64,2.54.7,2.54.59,3.45.9.66.23,1.29.56,1.93.87,3.22,1.56,6.49,3.02,9.64,4.71,3.35,1.8,6.59,3.81,9.88,5.73,1.35.78,2.68,1.61,4.06,2.34,1.01.53,2.16.82,3.12,1.42,4.86,3.08,10.14,5.15,15.62,6.78,1.47.44,2.95.85,4.42,1.27.82.23,1.64.68,2.46.66,2.78-.09,5.47.26,8.1,1.17.47.16.97.24,1.46.33,1.72.31,2.65.79,3.99,1.47.98.55,2.57,1.55,3.57,2.06,1.65.86,3.23,1.93,5.24,1.73.28-.03.61.03.85.17,2.13,1.18,4.27,2.34,6.33,3.63.49.3.69,1.07,1.03,1.62.51.83.88,1.83,1.59,2.44,1.72,1.49,3.66,2.74,5.41,4.21,1.12.95,2.06,2.12,3.08,3.2.46.49.9.98,1.34,1.48.19.21.42.42.53.67,1.32,3.01,2.59,6.04,4.14,8.94.4.73,1.15,1.28,1.78,1.86.61.55,1.3,1.01,1.93,1.53,2.07,1.71,4.15,3.43,6.2,5.16.44.37.84.8,1.2,1.25,2.34,2.86,4.68,5.72,6.98,8.62,1.18,1.48,2.29,3.03,3.43,4.56.03.03.05.07.07.1,2.31,2.86,4.74,5.64,6.89,8.62,1.41,1.93,2.42,4.15,3.6,6.24.35.62.61,1.28.97,1.88,1.29,2.17,2.41,4.48,3.98,6.43,1.46,1.81,3.03,3.47,4.11,5.58.65,1.27,1.72,2.34,2.68,3.43,2.19,2.48,4.68,4.74,6.57,7.43,1.28,1.8,2.67,3.44,4.13,5.06,1.23,1.36,2.11,2.35,3.3,3.73Zm-65.31-74.81c.1-.1.21-.19.31-.29-.39-.5-.78-.99-1.15-1.5-.28-.39-.57-.79-.79-1.22-.57-1.11-.91-2.43-1.71-3.34-1.97-2.25-4.14-4.32-6.23-6.46-.76-.77-1.66-1.2-2.84-.97.01.18-.03.36.03.49.72,1.65,1.47,3.29,2.17,4.95.23.57.41,1.18.52,1.79.4,2.35,1.05,2.97,3.36,3.53,1.07.26,2.1.75,3.09,1.24,1.11.53,2.17,1.18,3.24,1.78Zm-15.38-7.9c0-.72.17-1.47-.03-2.11-.83-2.64-1.76-5.25-2.7-7.85-.1-.27-.42-.51-.7-.65-1.93-.96-3.88-1.87-5.8-2.83-1.55-.77-3.07-1.58-4.62-2.38-.24,1.13-.4,2.06-.63,2.98-.51,2,.11,3.33,1.97,4.24.54.27,1.05.65,1.5,1.07,3.27,2.99,6.46,6.08,11.01,7.53Zm-14.89-14.89c.06-.25-.23-.78-.45-.84-1.34-.36-2.7-.67-4.08-.88-.69-.11-1.73-.34-1.82.67-.04.39.89,1.05,1.5,1.28,1.23.47,2.43.84,2.94,2.24.11.31.46.54.93,1.05.4-1.38.75-2.44.98-3.52Z"></path>
    <g>
      <path class="cls-5" d="m45.19,197.95c3.23-4.05,4.72-5.38,8.06-9.35,1.36-1.63,2.59-3.37,3.79-5.11,2.93-4.23,5.71-8.58,8.76-12.73,1.34-1.82,3.23-3.22,4.77-4.91,1.39-1.52,2.63-3.18,3.96-4.76,1.58-1.87,3.21-3.7,4.79-5.58,1.49-1.77,3-3.54,4.42-5.38,1.29-1.66,2.46-3.42,3.73-5.11.26-.34.72-.53,1.09-.79.67-.47,1.37-.91,2.01-1.43,3.25-2.69,4.56-6.67,6.69-10.1.15-.24.24-.54.42-.76,2.09-2.6,4.19-5.19,6.29-7.79.52-.64,1.01-1.31,1.5-1.99,1.06-1.47,2.31-2.68,4-3.47.88-.42,1.66-1.07,2.41-1.71,2.08-1.79,4.12-3.62,6.18-5.44.12-.1.27-.19.42-.27,3.14-1.72,6.26-3.48,9.44-5.14.86-.45,3.63-.6,3.63-.6"></path>
      <path class="cls-5" d="m335.9,235.89v13.05s-3.53-4.61-4.74-6.2c-1.7-2.25-3.38-4.5-5.12-6.72-.67-.85-1.56-1.53-2.16-2.42-3.19-4.75-6.3-9.56-9.47-14.33-1.17-1.76-2.42-3.47-3.64-5.2-.19-.28-.42-.53-.56-.83-1.41-3.23-3.58-5.97-5.79-8.67-1.2-1.48-2.36-2.99-3.57-4.44-3.61-4.32-7.28-8.59-10.83-12.94-1.8-2.21-3.41-4.57-5.09-6.86-.29-.4-2.01-1.33-2.01-1.33"></path>
      <path class="cls-5" d="m244.97,134.26c.98.55,2.57,1.55,3.57,2.06,1.65.86,3.23,1.93,5.24,1.73.28-.03.61.03.85.17,2.13,1.18,4.27,2.34,6.33,3.63.49.3.69,1.07,1.03,1.62.51.83.88,1.83,1.59,2.44,1.72,1.49,3.66,2.74,5.41,4.21,1.12.95,2.06,2.12,3.08,3.2.46.49.9.98,1.34,1.48.19.21.42.42.53.67,1.32,3.01,2.59,6.04,4.14,8.94.4.73,1.15,1.28,1.78,1.86.61.55,1.3,1.01,1.93,1.53,2.07,1.71,4.15,3.43,6.2,5.16.44.37.84.8,1.2,1.25,2.34,2.86,4.68,5.72,6.98,8.62,1.18,1.48,2.29,3.03,3.43,4.56.03.03.05.07.07.1,2.31,2.86,4.74,5.64,6.89,8.62,1.41,1.93,2.42,4.15,3.6,6.24.35.62.61,1.28.97,1.88,1.29,2.17,2.41,4.48,3.98,6.43,1.46,1.81,3.03,3.47,4.11,5.58.65,1.27,1.72,2.34,2.68,3.43,2.19,2.48,4.68,4.74,6.57,7.43,1.28,1.8,2.67,3.44,4.13,5.06,1.23,1.36,2.11,2.35,3.3,3.73"></path>
      <path class="cls-5" d="m215.26,133.44c-1.89-1.15-4.44-2.22-6.2-3.27-1.57-.94-3.13-1.9-4.74-2.76-2.46-1.31-4.99-2.5-7.44-3.83-5.88-3.18-11.73-6.44-17.62-9.63-2.54-1.37-5.11-2.26-8.2-2.02-4.73.37-9.5.13-14.24.09-1.03,0-2.06-.27-3.07-.47-1.95-.39-3.91-1.22-5.84-1.17-4.54.11-9.12-.79-13.62.64-1.92.61-3.96.84-5.95,1.21-1.01.19-2.16.04-3.02.48-2.08,1.09-4.22,2.22-5.99,3.73-2.3,1.96-4.37,4.22-6.35,6.52-1.93,2.23-3.48,4.79-5.45,6.97-1.48,1.62-1.86,3.79-3.41,5.42-1.43,1.51-2.11,3.73-3.13,5.63-.17.32-.44.6-.62.92-.37.65-.68,1.34-1.07,1.98-.16.26-.49.64-.71.62-1.27-.1-1.76.68-2.17,1.67-.19.45-.49.86-.81,1.24-.68.83-1.43,1.62-2.12,2.45-1.88,2.26-3.24,4.92-5.57,6.83-.66.54-1.06,1.39-1.67,2.01-2.24,2.24-3.74,5.19-6.55,6.89-.17.1-.26.32-.39.49-.73.95-1.44,1.91-2.19,2.84-1.4,1.75-2.84,3.46-4.22,5.23-1.25,1.6-2.45,3.25-3.66,4.88-.78,1.05-1.47,2.19-2.34,3.17-2.24,2.5-4.56,4.93-6.85,7.4-1.81,1.96-3.19,4.22-5.36,5.98-2.51,2.05-4.35,4.93-6.48,7.45-.06.06-.07.16-.11.22-.95,1.51-1.91,3-2.91,4.58"></path>
      <path class="cls-5" d="m176.84,106.61c2.54.7,2.54.59,3.45.9.66.23,1.29.56,1.93.87,3.22,1.56,6.49,3.02,9.64,4.71,3.35,1.8,6.59,3.81,9.88,5.73,1.35.78,2.68,1.61,4.06,2.34,1.01.53,2.16.82,3.12,1.42,4.86,3.08,10.14,5.15,15.62,6.78,1.47.44,2.95.85,4.42,1.27.82.23,1.64.68,2.46.66,2.78-.09,5.47.26,8.1,1.17.47.16.97.24,1.46.33,1.72.31,2.65.79,3.99,1.47"></path>
      <path class="cls-5" d="m131.55,105.53c.9,0,1.72.04,2.53,0,2.45-.12,4.89-.27,7.34-.41.62-.04,1.25-.03,1.86-.14,1.21-.22,2.4-.75,3.59-.72,4.08.12,8.13-.2,12.26.61,4.19.81,8.6.48,12.91.69.82.04,1.63.24,2.43.41.8.18,1.59.38,2.37.64"></path>
      <path class="cls-5" d="m215.26,133.44c.32.22.63.46.98.65,1.02.53,2.06,1.03,3.07,1.58.84.45,1.61,1.07,2.49,1.38,2.03.74,4.09,1.4,6.17,1.97,2.73.74,5.11,1.78,6.36,4.63.39.91,1.38,1.59,2.16,2.31.51.47,1.17.78,1.71,1.24,2.34,2,4.58,4.12,7,6.01,2.16,1.67,4.48,3.14,6.78,4.61,1.44.91,2.6,1.97,3.46,3.49.52.91,1.46,1.76,2.41,2.22,3.33,1.62,6.75,3.03,10.12,4.56,3.27,1.48,6.39,3.19,8.88,5.86.55.59,1.31.98,1.98,1.44.34.24.75.39,1.05.67,1.08,1,2.12,2.04,3.04,2.94"></path>
      <path class="cls-5" d="m255.21,153.18c-4.55-1.45-7.74-4.54-11.01-7.53-.45-.42-.96-.8-1.5-1.07-1.86-.91-2.48-2.24-1.97-4.24.23-.92.39-1.85.63-2.98,1.55.8,3.07,1.61,4.62,2.38,1.92.96,3.87,1.87,5.8,2.83.28.14.6.38.7.65.94,2.6,1.87,5.21,2.7,7.85.2.64.03,1.39.03,2.11Z"></path>
      <path class="cls-5" d="m270.59,161.08c-1.07-.6-2.13-1.25-3.24-1.78-.99-.49-2.02-.98-3.09-1.24-2.31-.56-2.96-1.18-3.36-3.53-.11-.61-.29-1.22-.52-1.79-.7-1.66-1.45-3.3-2.17-4.95-.06-.13-.02-.31-.03-.49,1.18-.23,2.08.2,2.84.97,2.09,2.14,4.26,4.21,6.23,6.46.8.91,1.14,2.23,1.71,3.34.22.43.51.83.79,1.22.37.51.76,1,1.15,1.5-.1.1-.21.19-.31.29Z"></path>
      <path class="cls-5" d="m239.34,141.81c-.47-.51-.82-.74-.93-1.05-.51-1.4-1.71-1.77-2.94-2.24-.61-.23-1.54-.89-1.5-1.28.09-1.01,1.13-.78,1.82-.67,1.38.21,2.74.52,4.08.88.22.06.51.59.45.84-.23,1.08-.58,2.14-.98,3.52Z"></path>
      <line class="cls-5" x1="45.19" y1="207.83" x2="45.19" y2="197.95"></line>
    </g>
  </g>
  <path class="cls-1" d="m224.24,137.02c.69,0,1.25-.56,1.25-1.25s-.56-1.25-1.25-1.25-1.25.56-1.25,1.25.56,1.25,1.25,1.25"></path>
  <g>
    <path class="cls-3" d="m49.17.1l3.03,6.5s-.08-3.54,3.47-3.47L49.17.1Z"></path>
    <path class="cls-2" d="m230.84,167.32c1.62,0,2.93-1.31,2.93-2.93s-1.31-2.94-2.93-2.94-2.94,1.31-2.94,2.94,1.31,2.93,2.94,2.93"></path>
  </g>
  <path class="cls-4" d="m213.53,160.26c.69,0,1.25-.56,1.25-1.25s-.56-1.25-1.25-1.25-1.25.56-1.25,1.25.56,1.25,1.25,1.25"></path>
</svg>