<?xml version="1.0" encoding="utf-8"?>
<!-- Generator: Adobe Illustrator 27.3.1, SVG Export Plug-In . SVG Version: 6.00 Build 0)  -->
<svg version="1.1" id="Calque_1" xmlns="http://www.w3.org/2000/svg" xmlns:xlink="http://www.w3.org/1999/xlink" x="0px" y="0px"
	 viewBox="0 0 419.53 841.89" style="enable-background:new 0 0 419.53 841.89;" xml:space="preserve">
<style type="text/css">
	.st0{fill:#003B6A;}
	.st1{fill:none;stroke:#FFFFFF;stroke-width:0.25;stroke-miterlimit:10;}
</style>
<g>
	<g id="XMLID_00000075126171364303780180000010226788302117737149_">
		<g>
			<path class="st0" d="M342.74,533.44c1.24,1.35,1.34,2.23,3.01,1.45c-2.35,1.32-4.67,2.66-6.98,4.02
				c-1.61,0.95-2.19,0.75-3.21-0.81c-1.1-1.66-2.37-3.2-3.58-4.79c-1.7-2.25-3.38-4.5-5.12-6.72c-0.67-0.85-1.56-1.53-2.16-2.42
				c-3.19-4.75-6.3-9.56-9.47-14.33c-1.17-1.76-2.42-3.47-3.64-5.2c-0.19-0.28-0.42-0.53-0.56-0.83c-1.41-3.23-3.58-5.97-5.79-8.67
				c-1.2-1.48-2.36-2.99-3.57-4.44c-3.61-4.32-7.28-8.59-10.83-12.94c-1.8-2.21-3.41-4.57-5.09-6.86c-0.29-0.4-2.01-1.33-2.01-1.33
				c-0.92-0.9-1.96-1.94-3.04-2.94c-0.3-0.28-0.71-0.43-1.05-0.67c-0.67-0.46-1.43-0.85-1.98-1.44c-2.49-2.67-5.61-4.38-8.88-5.86
				c-3.37-1.53-6.79-2.94-10.12-4.56c-0.95-0.46-1.89-1.31-2.41-2.22c-0.86-1.52-2.02-2.58-3.46-3.49c-2.3-1.47-4.62-2.94-6.78-4.61
				c-2.42-1.89-4.66-4.01-7-6.01c-0.54-0.46-1.2-0.77-1.71-1.24c-0.78-0.72-1.77-1.4-2.16-2.31c-1.25-2.85-3.63-3.89-6.36-4.63
				c-2.08-0.57-4.14-1.23-6.17-1.97c-0.88-0.31-1.65-0.93-2.49-1.38c-1.01-0.55-2.05-1.05-3.07-1.58c-0.35-0.19-0.66-0.43-0.98-0.65
				c-1.89-1.15-4.44-2.22-6.2-3.27c-1.57-0.94-3.13-1.9-4.74-2.76c-2.46-1.31-4.99-2.5-7.44-3.83c-5.88-3.18-11.73-6.44-17.62-9.63
				c-2.54-1.37-5.11-2.26-8.2-2.02c-4.73,0.37-9.5,0.13-14.24,0.09c-1.03-0.01-2.06-0.27-3.07-0.47c-1.95-0.39-3.91-1.22-5.84-1.17
				c-4.54,0.11-9.12-0.79-13.62,0.64c-1.92,0.61-3.96,0.84-5.95,1.21c-1.01,0.19-2.16,0.04-3.02,0.48
				c-2.08,1.09-4.22,2.22-5.99,3.73c-2.3,1.96-4.37,4.22-6.35,6.52c-1.93,2.23-3.48,4.79-5.45,6.97c-1.48,1.62-1.86,3.79-3.41,5.42
				c-1.43,1.51-2.11,3.73-3.13,5.63c-0.17,0.32-0.44,0.6-0.62,0.92c-0.37,0.65-0.68,1.34-1.07,1.98c-0.16,0.26-0.49,0.64-0.71,0.62
				c-1.27-0.1-1.76,0.68-2.17,1.67c-0.19,0.45-0.49,0.86-0.81,1.24c-0.68,0.83-1.43,1.62-2.12,2.45c-1.88,2.26-3.24,4.92-5.57,6.83
				c-0.66,0.54-1.06,1.39-1.67,2.01c-2.24,2.24-3.74,5.19-6.55,6.89c-0.17,0.1-0.26,0.32-0.39,0.49c-0.73,0.95-1.44,1.91-2.19,2.84
				c-1.4,1.75-2.84,3.46-4.22,5.23c-1.25,1.6-2.45,3.25-3.66,4.88c-0.78,1.05-1.47,2.19-2.34,3.17c-2.24,2.5-4.56,4.93-6.85,7.4
				c-1.81,1.96-3.19,4.22-5.36,5.98c-2.51,2.05-4.35,4.93-6.48,7.45c-0.06,0.06-0.07,0.16-0.11,0.22c-0.95,1.51-1.91,3-2.91,4.58
				c0.05,0.08,0.08,0.2,0.13,0.22l-9.02,0.67c0.25-0.64,0.6-1.34,1.12-1.76c2.3-1.85,3.92-4.25,5.73-6.52
				c3.24-4.05,6.76-7.87,10.1-11.84c1.36-1.63,2.59-3.37,3.79-5.11c2.93-4.23,5.71-8.58,8.76-12.73c1.34-1.82,3.23-3.22,4.77-4.91
				c1.39-1.52,2.63-3.18,3.96-4.76c1.58-1.87,3.21-3.7,4.79-5.58c1.49-1.77,3-3.54,4.42-5.38c1.29-1.66,2.46-3.42,3.73-5.11
				c0.26-0.34,0.72-0.53,1.09-0.79c0.67-0.47,1.37-0.91,2.01-1.43c3.25-2.69,4.56-6.67,6.69-10.1c0.15-0.24,0.24-0.54,0.42-0.76
				c2.09-2.6,4.19-5.19,6.29-7.79c0.52-0.64,1.01-1.31,1.5-1.99c1.06-1.47,2.31-2.68,4-3.47c0.88-0.42,1.66-1.07,2.41-1.71
				c2.08-1.79,4.12-3.62,6.18-5.44c0.12-0.1,0.27-0.19,0.42-0.27c3.14-1.72,6.26-3.48,9.44-5.14c0.86-0.45,3.63-0.6,3.63-0.6
				c0.9,0,1.72,0.04,2.53,0c2.45-0.12,4.89-0.27,7.34-0.41c0.62-0.04,1.25-0.03,1.86-0.14c1.21-0.22,2.4-0.75,3.59-0.72
				c4.08,0.12,8.13-0.2,12.26,0.61c4.19,0.81,8.6,0.48,12.91,0.69c0.82,0.04,1.63,0.24,2.43,0.41c0.8,0.18,1.59,0.38,2.37,0.64
				c2.54,0.7,2.54,0.59,3.45,0.9c0.66,0.23,1.29,0.56,1.93,0.87c3.22,1.56,6.49,3.02,9.64,4.71c3.35,1.8,6.59,3.81,9.88,5.73
				c1.35,0.78,2.68,1.61,4.06,2.34c1.01,0.53,2.16,0.82,3.12,1.42c4.86,3.08,10.14,5.15,15.62,6.78c1.47,0.44,2.95,0.85,4.42,1.27
				c0.82,0.23,1.64,0.68,2.46,0.66c2.78-0.09,5.47,0.26,8.1,1.17c0.47,0.16,0.97,0.24,1.46,0.33c1.72,0.31,2.65,0.79,3.99,1.47
				c0.98,0.55,2.57,1.55,3.57,2.06c1.65,0.86,3.23,1.93,5.24,1.73c0.28-0.03,0.61,0.03,0.85,0.17c2.13,1.18,4.27,2.34,6.33,3.63
				c0.49,0.3,0.69,1.07,1.03,1.62c0.51,0.83,0.88,1.83,1.59,2.44c1.72,1.49,3.66,2.74,5.41,4.21c1.12,0.95,2.06,2.12,3.08,3.2
				c0.46,0.49,0.9,0.98,1.34,1.48c0.19,0.21,0.42,0.42,0.53,0.67c1.32,3.01,2.59,6.04,4.14,8.94c0.4,0.73,1.15,1.28,1.78,1.86
				c0.61,0.55,1.3,1.01,1.93,1.53c2.07,1.71,4.15,3.43,6.2,5.16c0.44,0.37,0.84,0.8,1.2,1.25c2.34,2.86,4.68,5.72,6.98,8.62
				c1.18,1.48,2.29,3.03,3.43,4.56c0.03,0.03,0.05,0.07,0.07,0.1c2.31,2.86,4.74,5.64,6.89,8.62c1.41,1.93,2.42,4.15,3.6,6.24
				c0.35,0.62,0.61,1.28,0.97,1.88c1.29,2.17,2.41,4.48,3.98,6.43c1.46,1.81,3.03,3.47,4.11,5.58c0.65,1.27,1.72,2.34,2.68,3.43
				c2.19,2.48,4.68,4.74,6.57,7.43c1.28,1.8,2.67,3.44,4.13,5.06c1.23,1.36,2.44,2.73,3.64,4.12
				C338.96,529.04,340.79,531.29,342.74,533.44z M271.41,451.65c0.1-0.1,0.21-0.19,0.31-0.29c-0.39-0.5-0.78-0.99-1.15-1.5
				c-0.28-0.39-0.57-0.79-0.79-1.22c-0.57-1.11-0.91-2.43-1.71-3.34c-1.97-2.25-4.14-4.32-6.23-6.46c-0.76-0.77-1.66-1.2-2.84-0.97
				c0.01,0.18-0.03,0.36,0.03,0.49c0.72,1.65,1.47,3.29,2.17,4.95c0.23,0.57,0.41,1.18,0.52,1.79c0.4,2.35,1.05,2.97,3.36,3.53
				c1.07,0.26,2.1,0.75,3.09,1.24C269.28,450.4,270.34,451.05,271.41,451.65z M256.03,443.75c0-0.72,0.17-1.47-0.03-2.11
				c-0.83-2.64-1.76-5.25-2.7-7.85c-0.1-0.27-0.42-0.51-0.7-0.65c-1.93-0.96-3.88-1.87-5.8-2.83c-1.55-0.77-3.07-1.58-4.62-2.38
				c-0.24,1.13-0.4,2.06-0.63,2.98c-0.51,2,0.11,3.33,1.97,4.24c0.54,0.27,1.05,0.65,1.5,1.07
				C248.29,439.21,251.48,442.3,256.03,443.75z M241.14,428.86c0.06-0.25-0.23-0.78-0.45-0.84c-1.34-0.36-2.7-0.67-4.08-0.88
				c-0.69-0.11-1.73-0.34-1.82,0.67c-0.04,0.39,0.89,1.05,1.5,1.28c1.23,0.47,2.43,0.84,2.94,2.24c0.11,0.31,0.46,0.54,0.93,1.05
				C240.56,431,240.91,429.94,241.14,428.86z"/>
		</g>
		<g>
			<path class="st1" d="M46.14,498.62l-9.02,0.67c0.25-0.64,0.6-1.34,1.12-1.76c2.3-1.85,3.92-4.25,5.73-6.52
				c3.24-4.05,6.76-7.87,10.1-11.84c1.36-1.63,2.59-3.37,3.79-5.11c2.93-4.23,5.71-8.58,8.76-12.73c1.34-1.82,3.23-3.22,4.77-4.91
				c1.39-1.52,2.63-3.18,3.96-4.76c1.58-1.87,3.21-3.7,4.79-5.58c1.49-1.77,3-3.54,4.42-5.38c1.29-1.66,2.46-3.42,3.73-5.11
				c0.26-0.34,0.72-0.53,1.09-0.79c0.67-0.47,1.37-0.91,2.01-1.43c3.25-2.69,4.56-6.67,6.69-10.1c0.15-0.24,0.24-0.54,0.42-0.76
				c2.09-2.6,4.19-5.19,6.29-7.79c0.52-0.64,1.01-1.31,1.5-1.99c1.06-1.47,2.31-2.68,4-3.47c0.88-0.42,1.66-1.07,2.41-1.71
				c2.08-1.79,4.12-3.62,6.18-5.44c0.12-0.1,0.27-0.19,0.42-0.27c3.14-1.72,6.26-3.48,9.44-5.14c0.86-0.45,3.63-0.6,3.63-0.6"/>
			<path class="st1" d="M345.82,534.85c-0.02,0.01-0.05,0.03-0.07,0.04c-2.35,1.32-4.67,2.66-6.98,4.02
				c-1.61,0.95-2.19,0.75-3.21-0.81c-1.1-1.66-2.37-3.2-3.58-4.79c-1.7-2.25-3.38-4.5-5.12-6.72c-0.67-0.85-1.56-1.53-2.16-2.42
				c-3.19-4.75-6.3-9.56-9.47-14.33c-1.17-1.76-2.42-3.47-3.64-5.2c-0.19-0.28-0.42-0.53-0.56-0.83c-1.41-3.23-3.58-5.97-5.79-8.67
				c-1.2-1.48-2.36-2.99-3.57-4.44c-3.61-4.32-7.28-8.59-10.83-12.94c-1.8-2.21-3.41-4.57-5.09-6.86c-0.29-0.4-2.01-1.33-2.01-1.33"
				/>
			<path class="st1" d="M245.79,424.83c0.98,0.55,2.57,1.55,3.57,2.06c1.65,0.86,3.23,1.93,5.24,1.73c0.28-0.03,0.61,0.03,0.85,0.17
				c2.13,1.18,4.27,2.34,6.33,3.63c0.49,0.3,0.69,1.07,1.03,1.62c0.51,0.83,0.88,1.83,1.59,2.44c1.72,1.49,3.66,2.74,5.41,4.21
				c1.12,0.95,2.06,2.12,3.08,3.2c0.46,0.49,0.9,0.98,1.34,1.48c0.19,0.21,0.42,0.42,0.53,0.67c1.32,3.01,2.59,6.04,4.14,8.94
				c0.4,0.73,1.15,1.28,1.78,1.86c0.61,0.55,1.3,1.01,1.93,1.53c2.07,1.71,4.15,3.43,6.2,5.16c0.44,0.37,0.84,0.8,1.2,1.25
				c2.34,2.86,4.68,5.72,6.98,8.62c1.18,1.48,2.29,3.03,3.43,4.56c0.03,0.03,0.05,0.07,0.07,0.1c2.31,2.86,4.74,5.64,6.89,8.62
				c1.41,1.93,2.42,4.15,3.6,6.24c0.35,0.62,0.61,1.28,0.97,1.88c1.29,2.17,2.41,4.48,3.98,6.43c1.46,1.81,3.03,3.47,4.11,5.58
				c0.65,1.27,1.72,2.34,2.68,3.43c2.19,2.48,4.68,4.74,6.57,7.43c1.28,1.8,2.67,3.44,4.13,5.06c1.23,1.36,2.44,2.73,3.64,4.12
				c1.9,2.19,3.73,4.44,5.68,6.59c1.24,1.35,1.34,2.23,3.01,1.45"/>
			<path class="st1" d="M216.08,424.01c-1.89-1.15-4.44-2.22-6.2-3.27c-1.57-0.94-3.13-1.9-4.74-2.76c-2.46-1.31-4.99-2.5-7.44-3.83
				c-5.88-3.18-11.73-6.44-17.62-9.63c-2.54-1.37-5.11-2.26-8.2-2.02c-4.73,0.37-9.5,0.13-14.24,0.09
				c-1.03-0.01-2.06-0.27-3.07-0.47c-1.95-0.39-3.91-1.22-5.84-1.17c-4.54,0.11-9.12-0.79-13.62,0.64
				c-1.92,0.61-3.96,0.84-5.95,1.21c-1.01,0.19-2.16,0.04-3.02,0.48c-2.08,1.09-4.22,2.22-5.99,3.73c-2.3,1.96-4.37,4.22-6.35,6.52
				c-1.93,2.23-3.48,4.79-5.45,6.97c-1.48,1.62-1.86,3.79-3.41,5.42c-1.43,1.51-2.11,3.73-3.13,5.63c-0.17,0.32-0.44,0.6-0.62,0.92
				c-0.37,0.65-0.68,1.34-1.07,1.98c-0.16,0.26-0.49,0.64-0.71,0.62c-1.27-0.1-1.76,0.68-2.17,1.67c-0.19,0.45-0.49,0.86-0.81,1.24
				c-0.68,0.83-1.43,1.62-2.12,2.45c-1.88,2.26-3.24,4.92-5.57,6.83c-0.66,0.54-1.06,1.39-1.67,2.01c-2.24,2.24-3.74,5.19-6.55,6.89
				c-0.17,0.1-0.26,0.32-0.39,0.49c-0.73,0.95-1.44,1.91-2.19,2.84c-1.4,1.75-2.84,3.46-4.22,5.23c-1.25,1.6-2.45,3.25-3.66,4.88
				c-0.78,1.05-1.47,2.19-2.34,3.17c-2.24,2.5-4.56,4.93-6.85,7.4c-1.81,1.96-3.19,4.22-5.36,5.98c-2.51,2.05-4.35,4.93-6.48,7.45
				c-0.06,0.06-0.07,0.16-0.11,0.22c-0.95,1.51-1.91,3-2.91,4.58c0.05,0.08,0.08,0.2,0.13,0.22"/>
			<path class="st1" d="M177.66,397.18c2.54,0.7,2.54,0.59,3.45,0.9c0.66,0.23,1.29,0.56,1.93,0.87c3.22,1.56,6.49,3.02,9.64,4.71
				c3.35,1.8,6.59,3.81,9.88,5.73c1.35,0.78,2.68,1.61,4.06,2.34c1.01,0.53,2.16,0.82,3.12,1.42c4.86,3.08,10.14,5.15,15.62,6.78
				c1.47,0.44,2.95,0.85,4.42,1.27c0.82,0.23,1.64,0.68,2.46,0.66c2.78-0.09,5.47,0.26,8.1,1.17c0.47,0.16,0.97,0.24,1.46,0.33
				c1.72,0.31,2.65,0.79,3.99,1.47"/>
			<path class="st1" d="M132.37,396.1c0.9,0,1.72,0.04,2.53,0c2.45-0.12,4.89-0.27,7.34-0.41c0.62-0.04,1.25-0.03,1.86-0.14
				c1.21-0.22,2.4-0.75,3.59-0.72c4.08,0.12,8.13-0.2,12.26,0.61c4.19,0.81,8.6,0.48,12.91,0.69c0.82,0.04,1.63,0.24,2.43,0.41
				c0.8,0.18,1.59,0.38,2.37,0.64"/>
			<path class="st1" d="M216.08,424.01c0.32,0.22,0.63,0.46,0.98,0.65c1.02,0.53,2.06,1.03,3.07,1.58c0.84,0.45,1.61,1.07,2.49,1.38
				c2.03,0.74,4.09,1.4,6.17,1.97c2.73,0.74,5.11,1.78,6.36,4.63c0.39,0.91,1.38,1.59,2.16,2.31c0.51,0.47,1.17,0.78,1.71,1.24
				c2.34,2,4.58,4.12,7,6.01c2.16,1.67,4.48,3.14,6.78,4.61c1.44,0.91,2.6,1.97,3.46,3.49c0.52,0.91,1.46,1.76,2.41,2.22
				c3.33,1.62,6.75,3.03,10.12,4.56c3.27,1.48,6.39,3.19,8.88,5.86c0.55,0.59,1.31,0.98,1.98,1.44c0.34,0.24,0.75,0.39,1.05,0.67
				c1.08,1,2.12,2.04,3.04,2.94"/>
			<path class="st1" d="M256.03,443.75c-4.55-1.45-7.74-4.54-11.01-7.53c-0.45-0.42-0.96-0.8-1.5-1.07
				c-1.86-0.91-2.48-2.24-1.97-4.24c0.23-0.92,0.39-1.85,0.63-2.98c1.55,0.8,3.07,1.61,4.62,2.38c1.92,0.96,3.87,1.87,5.8,2.83
				c0.28,0.14,0.6,0.38,0.7,0.65c0.94,2.6,1.87,5.21,2.7,7.85C256.2,442.28,256.03,443.03,256.03,443.75z"/>
			<path class="st1" d="M271.41,451.65c-1.07-0.6-2.13-1.25-3.24-1.78c-0.99-0.49-2.02-0.98-3.09-1.24
				c-2.31-0.56-2.96-1.18-3.36-3.53c-0.11-0.61-0.29-1.22-0.52-1.79c-0.7-1.66-1.45-3.3-2.17-4.95c-0.06-0.13-0.02-0.31-0.03-0.49
				c1.18-0.23,2.08,0.2,2.84,0.97c2.09,2.14,4.26,4.21,6.23,6.46c0.8,0.91,1.14,2.23,1.71,3.34c0.22,0.43,0.51,0.83,0.79,1.22
				c0.37,0.51,0.76,1,1.15,1.5C271.62,451.46,271.51,451.55,271.41,451.65z"/>
			<path class="st1" d="M240.16,432.38c-0.47-0.51-0.82-0.74-0.93-1.05c-0.51-1.4-1.71-1.77-2.94-2.24
				c-0.61-0.23-1.54-0.89-1.5-1.28c0.09-1.01,1.13-0.78,1.82-0.67c1.38,0.21,2.74,0.52,4.08,0.88c0.22,0.06,0.51,0.59,0.45,0.84
				C240.91,429.94,240.56,431,240.16,432.38z"/>
		</g>
	</g>
</g>
</svg>
